<svg width="188" height="196" viewBox="0 0 188 196" fill="none" xmlns="http://www.w3.org/2000/svg">
<circle cx="85.4299" cy="85" r="85" fill="#FF5C00"/>
<circle cx="85.4299" cy="85" r="85" fill="url(#paint0_linear_92_2211)" fill-opacity="0.8"/>
<circle cx="85.4299" cy="85" r="85" fill="url(#paint1_linear_92_2211)" fill-opacity="0.9"/>
<circle cx="85.4299" cy="85" r="85" fill="url(#paint2_linear_92_2211)" fill-opacity="0.9"/>
<circle cx="85.4299" cy="85" r="85" fill="url(#paint3_linear_92_2211)" fill-opacity="0.3"/>
<circle cx="85.4299" cy="85" r="85" fill="url(#paint4_linear_92_2211)" fill-opacity="0.2"/>
<circle cx="85.4299" cy="85" r="85" fill="url(#paint5_linear_92_2211)" fill-opacity="0.1"/>
<circle cx="85" cy="85" r="85" fill="url(#paint6_linear_92_2211)" fill-opacity="0.3"/>
<circle cx="85" cy="85" r="85" fill="url(#paint7_linear_92_2211)" fill-opacity="0.2"/>
<circle cx="85" cy="85" r="85" fill="url(#paint8_linear_92_2211)" fill-opacity="0.1"/>
<path fill-rule="evenodd" clip-rule="evenodd" d="M64.8997 137.457C71.6696 137.457 79.4112 135.737 87.2673 132.522C87.5131 132.424 87.7577 132.318 88.001 132.209C88.2247 132.11 88.4472 132.007 88.6657 131.905L88.7633 131.861L88.7789 131.853C92.0975 131.032 95.55 129.906 99 128.475C121.162 119.342 130.527 104.757 131.885 94.0278C133.518 80.9006 125.192 68.3466 114.728 58.9288C109.749 53.1147 103.579 48.0254 97.448 44.0982C89.683 39.1075 81.7307 35.6878 74.7371 34.1123C67.7682 32.542 61.6436 32.7801 57.6291 35.2535C53.7719 37.6173 50.9347 42.1132 48.9768 48.8379C46.1175 52.1646 44.0126 57.1986 42.5764 64.0354C41.1259 70.9397 40.3493 79.7302 40.1958 90.5585C40.041 101.885 40.8176 111.154 42.5322 118.304C44.2442 125.442 46.9071 130.539 50.5886 133.433C53.954 136.082 58.9286 137.457 64.8997 137.457ZM92.5216 121.879C99.7884 118.881 105.687 115.293 110.395 111.441C105.801 117.511 98.4471 123.605 87.5743 128.392C85.1533 128.973 82.8169 129.375 80.6028 129.597C78.2859 129.83 76.1017 129.866 74.0905 129.706C70.1423 129.393 66.8979 128.327 64.6187 126.544L64.3521 126.322C66.1434 126.641 68.0817 126.815 70.1514 126.815C76.9213 126.815 84.6655 125.094 92.5216 121.879ZM116.448 97.6086C116.398 98.076 116.323 98.5517 116.226 99.0414C116.137 99.4942 116.029 99.9591 115.905 100.441C111.12 106.925 103.171 113.5 91.1231 118.479C84.9413 121.029 78.9494 122.543 73.6625 123.018C68.4512 123.485 63.9631 122.94 60.651 121.42C57.1204 114.584 55.4045 102.95 55.6413 86.5612C55.7935 76.2246 56.5259 67.818 57.8476 61.2646C59.1407 54.852 60.988 50.2663 63.3621 47.3758C70.7772 47.9146 80.5274 51.5603 90.1865 57.78C97.2048 62.2931 104.271 68.3631 109.33 75.2611C114.393 82.1622 117.415 89.8446 116.448 97.6086ZM92.1977 54.7061C83.6651 49.2264 74.9023 45.6322 67.4313 44.3058C68.2703 43.9676 69.2174 43.7161 70.2724 43.5556C71.1765 43.418 72.16 43.3474 73.2202 43.3474C81.0204 43.3474 91.7632 47.2338 101.986 53.8031C105.465 56.0256 108.945 58.6524 112.19 61.5811C118.643 69.1706 122.832 78.0318 121.733 86.9675C121.511 88.7627 121.033 90.6903 120.255 92.6835C119.715 85.3819 116.346 78.3744 111.558 72.1299C106.259 65.2173 99.1938 59.2026 92.1977 54.7061ZM52.3136 50.6051C52.9432 49.9606 53.6262 49.4111 54.3339 48.9812C54.9271 48.6138 55.588 48.3081 56.3139 48.0642C57.071 47.8101 57.9009 47.6223 58.7999 47.5013C56.682 51.0133 55.0884 55.7658 53.9722 61.825C52.7546 68.4294 52.0964 76.62 51.9598 86.5122C51.7815 98.6116 52.6844 108.36 54.6656 115.691C53.0356 112.868 51.7503 109.09 50.8319 104.345C49.5882 97.9187 49.025 89.7708 49.1616 79.9308C49.3307 67.3398 50.3753 57.6055 52.3136 50.6051ZM66.7418 36.7175C72.3057 36.7175 79.3995 38.7101 86.7391 42.2635C83.4387 41.1504 80.2711 40.3881 77.3363 40.0022C72.0078 39.3023 67.3766 39.836 64.1413 41.8496C63.2736 42.382 62.5061 43.0041 61.7516 43.7384C58.9885 43.7046 56.4934 44.0784 54.3911 44.8967C55.8455 41.749 57.6134 39.6023 59.622 38.3726C61.3548 37.2849 63.7328 36.7175 66.7418 36.7175ZM57.3312 123.759L57.5107 123.871C57.6694 123.967 57.832 124.064 57.9959 124.158C59.2344 126.322 60.6848 128.07 62.3526 129.387C64.8477 131.356 68.2248 132.604 72.2329 133.132C68.632 133.756 65.2796 133.946 62.3097 133.706C58.3771 133.388 55.1483 132.322 52.886 130.554C49.8211 128.131 47.486 123.613 45.9653 116.909C44.4471 110.219 43.7576 101.432 43.9099 90.5725C44.0582 79.9486 44.8283 71.3753 46.2228 64.7486C45.7974 69.2725 45.5464 74.3116 45.4813 79.883C45.3096 91.2093 46.0862 100.478 47.8047 107.628C49.5219 114.767 52.1939 119.864 55.8742 122.757L55.8846 122.765C56.2423 123.033 56.6092 123.291 56.9903 123.541L57.3312 123.759ZM125.373 87.4311C125.807 83.8924 125.52 80.3925 124.667 76.9906C127.471 82.3061 128.897 87.9425 128.179 93.5967C127.186 101.507 121.067 112.087 107.084 120.381C113.781 114.343 117.655 107.812 119.298 102.008C122.922 96.9387 124.818 91.8538 125.373 87.4311Z" fill="white"/>
<g filter="url(#filter0_d_92_2211)">
<rect x="115" y="118" width="65" height="62" rx="16" fill="#FFF5EC" shape-rendering="crispEdges"/>
<path d="M137.347 134.909H142.574V155.364C142.564 157.239 142.167 158.853 141.381 160.207C140.595 161.552 139.496 162.589 138.085 163.318C136.684 164.038 135.05 164.398 133.185 164.398C131.48 164.398 129.946 164.095 128.582 163.489C127.228 162.873 126.153 161.964 125.358 160.761C124.563 159.559 124.165 158.062 124.165 156.273H129.406C129.416 157.059 129.586 157.736 129.918 158.304C130.259 158.872 130.727 159.308 131.324 159.611C131.92 159.914 132.607 160.065 133.384 160.065C134.226 160.065 134.941 159.89 135.528 159.54C136.116 159.18 136.561 158.65 136.864 157.949C137.176 157.248 137.337 156.386 137.347 155.364V134.909ZM164.101 142.906C163.968 141.666 163.41 140.7 162.425 140.009C161.449 139.317 160.18 138.972 158.618 138.972C157.519 138.972 156.577 139.137 155.791 139.469C155.005 139.8 154.404 140.25 153.987 140.818C153.571 141.386 153.357 142.035 153.348 142.764C153.348 143.37 153.485 143.896 153.76 144.341C154.044 144.786 154.428 145.165 154.911 145.477C155.393 145.78 155.929 146.036 156.516 146.244C157.103 146.453 157.695 146.628 158.291 146.77L161.018 147.452C162.117 147.707 163.173 148.053 164.186 148.489C165.209 148.924 166.123 149.473 166.928 150.136C167.742 150.799 168.386 151.599 168.859 152.537C169.333 153.474 169.57 154.573 169.57 155.832C169.57 157.537 169.134 159.038 168.263 160.335C167.392 161.623 166.132 162.632 164.484 163.361C162.846 164.08 160.862 164.44 158.533 164.44C156.269 164.44 154.304 164.09 152.638 163.389C150.981 162.688 149.683 161.666 148.746 160.321C147.818 158.976 147.316 157.338 147.24 155.406H152.425C152.5 156.42 152.813 157.262 153.362 157.935C153.911 158.607 154.626 159.109 155.507 159.44C156.397 159.772 157.392 159.938 158.49 159.938C159.636 159.938 160.64 159.767 161.501 159.426C162.373 159.076 163.054 158.593 163.547 157.977C164.039 157.352 164.29 156.623 164.3 155.79C164.29 155.032 164.068 154.407 163.632 153.915C163.196 153.413 162.586 152.996 161.8 152.665C161.023 152.324 160.114 152.021 159.072 151.756L155.763 150.903C153.367 150.288 151.473 149.355 150.081 148.105C148.698 146.846 148.007 145.174 148.007 143.091C148.007 141.377 148.471 139.876 149.399 138.588C150.337 137.3 151.61 136.301 153.22 135.591C154.83 134.871 156.653 134.511 158.689 134.511C160.753 134.511 162.562 134.871 164.115 135.591C165.678 136.301 166.904 137.291 167.794 138.56C168.684 139.819 169.143 141.268 169.172 142.906H164.101Z" fill="#FF6C3E"/>
</g>
<defs>
<filter id="filter0_d_92_2211" x="107" y="118" width="81" height="78" filterUnits="userSpaceOnUse" color-interpolation-filters="sRGB">
<feFlood flood-opacity="0" result="BackgroundImageFix"/>
<feColorMatrix in="SourceAlpha" type="matrix" values="0 0 0 0 0 0 0 0 0 0 0 0 0 0 0 0 0 0 127 0" result="hardAlpha"/>
<feOffset dy="8"/>
<feGaussianBlur stdDeviation="4"/>
<feComposite in2="hardAlpha" operator="out"/>
<feColorMatrix type="matrix" values="0 0 0 0 0 0 0 0 0 0 0 0 0 0 0 0 0 0 0.1 0"/>
<feBlend mode="normal" in2="BackgroundImageFix" result="effect1_dropShadow_92_2211"/>
<feBlend mode="normal" in="SourceGraphic" in2="effect1_dropShadow_92_2211" result="shape"/>
</filter>
<linearGradient id="paint0_linear_92_2211" x1="85.4299" y1="0" x2="85.4299" y2="170" gradientUnits="userSpaceOnUse">
<stop stop-color="#FF6C3E"/>
<stop offset="1" stop-color="#FF6C3E" stop-opacity="0"/>
</linearGradient>
<linearGradient id="paint1_linear_92_2211" x1="-40.007" y1="67.2573" x2="206.741" y2="112.233" gradientUnits="userSpaceOnUse">
<stop stop-color="#E5FF44"/>
<stop offset="1" stop-color="#FF4D00" stop-opacity="0"/>
</linearGradient>
<linearGradient id="paint2_linear_92_2211" x1="161.352" y1="30.534" x2="126.072" y2="104.145" gradientUnits="userSpaceOnUse">
<stop stop-color="#FF9900"/>
<stop offset="1" stop-color="#FFF09F" stop-opacity="0"/>
</linearGradient>
<linearGradient id="paint3_linear_92_2211" x1="85.4299" y1="0" x2="85.4299" y2="170" gradientUnits="userSpaceOnUse">
<stop stop-color="#FF6C3E"/>
<stop offset="1" stop-color="#FF6C3E" stop-opacity="0"/>
</linearGradient>
<linearGradient id="paint4_linear_92_2211" x1="-40.007" y1="67.2573" x2="206.741" y2="112.233" gradientUnits="userSpaceOnUse">
<stop stop-color="#E5FF44"/>
<stop offset="1" stop-color="#FF4D00" stop-opacity="0"/>
</linearGradient>
<linearGradient id="paint5_linear_92_2211" x1="161.352" y1="30.534" x2="123.804" y2="74.2718" gradientUnits="userSpaceOnUse">
<stop stop-color="#FF9900"/>
<stop offset="1" stop-color="#FFF09F" stop-opacity="0"/>
</linearGradient>
<linearGradient id="paint6_linear_92_2211" x1="85" y1="0" x2="85" y2="170" gradientUnits="userSpaceOnUse">
<stop stop-color="#FF6C3E"/>
<stop offset="1" stop-color="#FF6C3E" stop-opacity="0"/>
</linearGradient>
<linearGradient id="paint7_linear_92_2211" x1="-40.4369" y1="67.2573" x2="206.311" y2="112.233" gradientUnits="userSpaceOnUse">
<stop stop-color="#E5FF44"/>
<stop offset="1" stop-color="#FF4D00" stop-opacity="0"/>
</linearGradient>
<linearGradient id="paint8_linear_92_2211" x1="160.922" y1="30.534" x2="123.374" y2="74.2718" gradientUnits="userSpaceOnUse">
<stop stop-color="#FF9900"/>
<stop offset="1" stop-color="#FFF09F" stop-opacity="0"/>
</linearGradient>
</defs>
</svg>
